<svg aria-hidden="true" style="position: absolute; width: 0; height: 0; overflow: hidden;" version="1.1" xmlns="http://www.w3.org/2000/svg" xmlns:xlink="http://www.w3.org/1999/xlink">
<defs>
<symbol id="icon-arrow" viewBox="0 0 26 32">
<path stroke-linejoin="miter" stroke-linecap="butt" stroke-miterlimit="4" stroke-width="1.8462" d="M22.949 11.257l-11.314 11.314"></path>
<path stroke-linejoin="miter" stroke-linecap="butt" stroke-miterlimit="4" stroke-width="1.8462" d="M11.73 1.193l11.314 11.314"></path>
</symbol>
<symbol id="icon-facebook" viewBox="0 0 32 32">
<path d="M32 16c0 8.837-7.163 16-16 16s-16-7.163-16-16c0-8.837 7.163-16 16-16s16 7.163 16 16z"></path>
<path d="M13.44 20.8v10.88c0 0.177 0.143 0.32 0.32 0.32h4.48c0.177 0 0.32-0.143 0.32-0.32v-10.88c0-0.177 0.143-0.32 0.32-0.32h3.2c0.177 0 0.32-0.143 0.32-0.32v-3.84c0-0.177-0.143-0.32-0.32-0.32h-3.2c-0.177 0-0.32-0.143-0.32-0.32v-2.88c0-1.28 1.6-1.92 2.24-1.92h1.92c0.177 0 0.32-0.143 0.32-0.32v-3.84c0-0.177-0.143-0.32-0.32-0.32h-4.16c-3.072 0-5.12 3.2-5.12 5.12v4.16c0 0.177-0.143 0.32-0.32 0.32h-3.2c-0.177 0-0.32 0.143-0.32 0.32v3.84c0 0.177 0.143 0.32 0.32 0.32h3.2c0.177 0 0.32 0.143 0.32 0.32z"></path>
</symbol>
<symbol id="icon-instagram" viewBox="0 0 33 32">
<path d="M5.5 0h22c2.761 0 5 2.239 5 5v22c0 2.761-2.239 5-5 5h-22c-2.761 0-5-2.239-5-5v-22c0-2.761 2.239-5 5-5z"></path>
<path d="M29.5 6.5c0 1.381-1.119 2.5-2.5 2.5s-2.5-1.119-2.5-2.5c0-1.381 1.119-2.5 2.5-2.5s2.5 1.119 2.5 2.5z"></path>
<path stroke-linejoin="miter" stroke-linecap="butt" stroke-miterlimit="4" stroke-width="3.5" d="M16.5 23.083c3.912 0 7.083-3.171 7.083-7.083s-3.171-7.083-7.083-7.083-7.083 3.171-7.083 7.083c0 3.912 3.171 7.083 7.083 7.083z"></path>
</symbol>
<symbol id="icon-telegram" viewBox="0 0 32 32">
<path d="M16 32c8.837 0 16-7.163 16-16s-7.163-16-16-16c-8.837 0-16 7.163-16 16s7.163 16 16 16z"></path>
<path d="M7.243 15.831c4.664-2.032 7.775-3.372 9.331-4.019 4.443-1.848 5.367-2.169 5.968-2.18 0.132-0.002 0.428 0.030 0.62 0.186 0.162 0.131 0.206 0.309 0.228 0.433s0.048 0.408 0.027 0.63c-0.241 2.53-1.283 8.67-1.813 11.503-0.224 1.199-0.666 1.601-1.093 1.64-0.929 0.085-1.635-0.614-2.535-1.204-1.408-0.923-2.204-1.498-3.571-2.398-1.58-1.041-0.556-1.613 0.345-2.548 0.236-0.245 4.329-3.968 4.409-4.306 0.010-0.042 0.019-0.2-0.074-0.283s-0.232-0.055-0.331-0.032c-0.141 0.032-2.391 1.519-6.749 4.461-0.639 0.439-1.217 0.652-1.735 0.641-0.571-0.012-1.67-0.323-2.487-0.589-1.002-0.326-1.798-0.498-1.729-1.051 0.036-0.288 0.433-0.583 1.19-0.884z"></path>
</symbol>
</defs>
</svg>
